<svg xmlns="http://www.w3.org/2000/svg" width="440.549" height="429.625" viewBox="0 0 440.549 429.625">
  <path id="Path_273" data-name="Path 273" d="M721.527,644.155h0M936.176,853.482H937.9c25.566-96.038,113.063-181.347,213.469-208.1v-1.533c-100.406-26.755-187.9-112.059-213.469-208.107h-1.722C910.6,531.784,823.1,617.093,722.706,643.848v1.533c100.406,26.755,187.9,112.058,213.469,208.1m2.932,5.941h-4.152a4.355,4.355,0,0,1-4.224-3.265c-24.74-94.91-111.387-179.348-210.706-205.339a4.37,4.37,0,0,1-3.265-4.224v-3.963a4.376,4.376,0,0,1,3.265-4.229c99.319-25.991,185.966-110.428,210.706-205.339a4.361,4.361,0,0,1,4.224-3.266h4.152a4.377,4.377,0,0,1,4.229,3.255c24.745,94.921,111.392,179.363,210.706,205.349a4.371,4.371,0,0,1,3.266,4.229V646.6a4.365,4.365,0,0,1-3.266,4.224C1054.73,676.81,968.082,761.248,943.337,856.163a4.376,4.376,0,0,1-4.229,3.26" transform="translate(-716.76 -429.799)" fill="#6b4dd6"/>
</svg>
